HIERARCHY
ROOT Hips
{
	OFFSET -3.958830 18.904000 13.208200
	CHANNELS 6 Xposition Yposition Zposition Zrotation Yrotation Xrotation 
	JOINT LHipJoint
	{
		OFFSET 0.000000 0.000000 0.000000
		CHANNELS 3 Zrotation Yrotation Xrotation
		JOINT LeftUpLeg
		{
			OFFSET 1.800000 -1.400000 0.085000
			CHANNELS 3 Zrotation Yrotation Xrotation
			JOINT LeftLeg
			{
				OFFSET 2.215000 -6.000000 0.000000
				CHANNELS 3 Zrotation Yrotation Xrotation
				JOINT LeftFoot
				{
					OFFSET 2.500000 -6.900000 0.000000
					CHANNELS 3 Zrotation Yrotation Xrotation
					JOINT LeftToeBase
					{
						OFFSET 0.200000 -0.500000 1.950000
						CHANNELS 3 Zrotation Yrotation Xrotation
						End Site
						{
							OFFSET 0.000000 0.000000 0.000000
						}
					}
				}
			}
		}
	}
	JOINT RHipJoint
	{
		OFFSET 0.000000 0.000000 0.000000
		CHANNELS 3 Zrotation Yrotation Xrotation
		JOINT RightUpLeg
		{
			OFFSET -1.800000 -1.400000 0.085000
			CHANNELS 3 Zrotation Yrotation Xrotation
			JOINT RightLeg
			{
				OFFSET -2.215000 -6.000000 0.000000
				CHANNELS 3 Zrotation Yrotation Xrotation
				JOINT RightFoot
				{
					OFFSET -2.500000 -6.900000 0.000000
					CHANNELS 3 Zrotation Yrotation Xrotation
					JOINT RightToeBase
					{
						OFFSET -0.200000 -0.500000 1.950000
						CHANNELS 3 Zrotation Yrotation Xrotation
						End Site
						{
							OFFSET 0.000000 0.000000 0.000000
						}
					}
				}
			}
		}
	}
	JOINT LowerBack
	{
		OFFSET 0.000000 0.000000 0.000000
		CHANNELS 3 Zrotation Yrotation Xrotation
		JOINT Spine
		{
			OFFSET -0.087000 1.940000 -0.288900
			CHANNELS 3 Zrotation Yrotation Xrotation
			JOINT Spine1
			{
				OFFSET 0.000000 1.950000 0.060000
				CHANNELS 3 Zrotation Yrotation Xrotation
				JOINT Neck
				{
					OFFSET 0.000000 0.000000 0.000000
					CHANNELS 3 Zrotation Yrotation Xrotation
					JOINT Neck1
					{
						OFFSET 0.000000 1.600000 0.340000
						CHANNELS 3 Zrotation Yrotation Xrotation
						JOINT Head
						{
							OFFSET 0.000000 1.667000 -0.240000
							CHANNELS 3 Zrotation Yrotation Xrotation
							End Site
							{
								OFFSET 0.000000 0.000000 0.000000
							}
						}
					}
				}
				JOINT LeftShoulder
				{
					OFFSET 0.000000 0.000000 0.000000
					CHANNELS 3 Zrotation Yrotation Xrotation
					JOINT LeftArm
					{
						OFFSET 2.700000 1.550000 -0.730000
						CHANNELS 3 Zrotation Yrotation Xrotation
						JOINT LeftForeArm
						{
							OFFSET 5.450000 0.000000 0.000000
							CHANNELS 3 Zrotation Yrotation Xrotation
							JOINT LeftHand
							{
								OFFSET 3.450000 0.000000 0.000000
								CHANNELS 3 Zrotation Yrotation Xrotation
								JOINT LeftHandIndex1
								{
									OFFSET 0.750000 0.000000 0.000000
									CHANNELS 3 Zrotation Yrotation Xrotation
									End Site
									{
										OFFSET 0.000000 0.000000 0.000000
									}
								}
							}
						}
					}
				}
				JOINT RightShoulder
				{
					OFFSET 0.000000 0.000000 0.000000
					CHANNELS 3 Zrotation Yrotation Xrotation
					JOINT RightArm
					{
						OFFSET -2.700000 1.550000 -0.730000
						CHANNELS 3 Zrotation Yrotation Xrotation
						JOINT RightForeArm
						{
							OFFSET -5.450000 0.000000 0.000000
							CHANNELS 3 Zrotation Yrotation Xrotation
							JOINT RightHand
							{
								OFFSET -3.450000 0.000000 0.000000
								CHANNELS 3 Zrotation Yrotation Xrotation
								JOINT RightHandIndex1
								{
									OFFSET -0.750000 0.000000 0.000000
									CHANNELS 3 Zrotation Yrotation Xrotation
									End Site
									{
										OFFSET 0.000000 0.000000 0.000000
									}
								}
							}
						}
					}
				}
			}
		}
	}
}
MOTION
Frames: 7
Frame Time: 0.016667
0.203300 17.695780 -3.735860 -0.072887 -5.052078 -40.125898 -15.743554 13.958063 3.340776 3.885199 4.551091 22.078989 -5.013536 8.951137 17.566460 0.438785 7.250402 2.174696 0.445560 0.329900 0.388030 17.731157 -10.220223 2.573528 -13.019973 -1.686777 16.774167 9.811466 -8.512394 13.916990 -1.057504 -6.105494 2.174016 0.194920 0.120480 0.176380 -1.975752 -4.196993 -7.635505 4.692241 1.711402 24.172928 -3.006714 1.914709 38.405301 3.902779 -5.752076 -17.078078 -18.198406 6.439831 48.155482 2.035160 -1.655630 -22.590560 -7.216659 -38.773611 10.046754 -0.396271 -16.584765 -18.984220 135.697769 14.130552 -8.794686 -3.975078 3.420211 0.621450 -0.121220 0.217740 0.024940 0.082860 44.721427 14.369898 2.454371 10.499859 -24.754016 -139.397377 -18.261835 -3.461706 2.494311 -2.785714 -0.131550 0.403500 0.068960 -0.102310 
0.189610 17.623100 -3.713460 0.761657 -4.921590 -42.641209 -15.984659 14.500917 3.483066 3.388400 4.691044 22.571024 -4.119965 9.356368 21.203521 0.585110 7.541420 2.051481 0.533630 0.440790 0.435920 17.429877 -9.904780 2.549733 -13.761820 -1.068356 18.984303 10.024843 -8.989383 16.420378 -1.145659 -6.360726 2.058769 0.234700 0.048160 0.182740 -1.224172 -5.534941 -7.941048 2.802296 2.692605 27.591472 -3.252391 2.751550 37.204413 5.020122 -5.215360 -19.105549 -19.643693 7.867451 51.631078 2.074450 -1.894910 -21.114890 -9.036152 -40.594402 9.362968 3.511417 -15.626389 -18.919950 142.896604 17.690674 0.513669 -3.932129 3.663640 0.605890 -0.159070 0.268330 0.055510 -1.046827 47.034483 15.047127 1.076815 9.555805 -23.823009 -149.753079 -22.057814 8.107343 2.473610 -3.098216 -0.065840 0.355330 -0.003300 -0.087230 
0.215610 17.578650 -3.720800 0.546975 -9.320367 -45.633553 -15.816115 14.903982 3.676423 4.925052 4.318741 24.257393 -4.941311 10.231112 23.124435 0.520387 8.049472 1.799562 0.600910 0.459640 0.542020 17.468693 -9.858562 2.690668 -11.928028 -0.887766 20.764354 8.304828 -8.855776 19.318906 -1.290173 -6.358384 1.984362 0.271840 -0.032450 0.162960 -1.457206 -6.384261 -8.257484 8.214610 0.312725 34.333852 -6.906499 2.959380 32.259576 7.579292 -5.952578 -24.442431 -28.018185 14.147334 60.167844 2.667710 -3.100940 -23.760270 -14.157892 -39.740416 9.726228 3.097846 -12.724446 -15.699417 149.579780 19.094907 5.925472 -3.736815 3.654019 0.819610 -0.279530 0.376660 -0.000030 -0.162954 47.998150 16.463596 0.254508 7.890642 -20.459004 -154.608983 -21.041288 7.439298 2.323412 -3.075067 -0.122810 0.466840 0.042460 -0.151190 
0.196690 17.585650 -3.733750 0.115380 -6.318420 -44.762786 -15.939218 15.033420 3.590456 4.595832 3.855575 22.567684 -3.644793 9.978466 25.399803 0.495075 8.133335 1.776668 0.400680 0.191720 0.430840 17.368585 -9.758821 2.640562 -12.205621 -0.946948 20.328936 8.947709 -9.238575 19.387180 -1.184305 -6.395736 1.975011 0.125640 0.033320 0.180730 -1.209877 -6.578531 -8.272285 5.376299 1.378061 33.118866 -5.550094 2.742949 35.309988 6.798569 -4.659734 -24.696957 -24.238869 11.424686 58.500296 2.759030 -3.061710 -20.083380 -10.433449 -42.311974 11.450925 1.565535 -9.574347 -18.328104 144.715978 17.425784 -5.534369 -4.076590 3.462930 0.819390 -0.220380 0.291070 -0.074470 -2.888616 48.809050 17.223546 8.263435 3.781167 -24.208341 -152.028265 -21.220655 -3.030527 2.394386 -2.977422 -0.185920 0.404590 0.162090 -0.181280 
0.163480 17.580160 -3.788280 -0.274250 -3.161240 -42.549584 -16.074989 15.159306 3.445657 4.134501 3.196433 19.336644 -2.407981 9.505683 27.047644 0.415462 8.111924 1.786935 0.132240 -0.194420 0.260320 17.271657 -9.705600 2.554244 -11.498371 -0.991207 18.024608 8.816813 -9.261330 19.630749 -0.970212 -6.256894 2.031909 -0.071500 0.166780 0.243400 -0.918192 -6.757027 -8.140366 1.358086 2.460350 31.399101 -2.023034 2.890066 36.182926 4.742238 -4.527014 -23.358587 -20.898637 8.919293 53.896077 4.614140 -2.852130 -13.927270 -7.228041 -41.929738 12.733691 -1.494466 -7.342754 -20.823518 135.845387 12.439192 -15.886653 -4.445576 3.253680 0.796800 -0.104090 0.143170 -0.164930 -2.340873 48.036029 17.721667 10.437952 -0.131663 -27.096294 -143.938380 -17.949197 -12.676536 2.568673 -2.806794 -0.266020 0.288950 0.335430 -0.212120 
0.159960 17.607130 -3.857950 -0.678357 -2.631108 -42.160528 -15.716728 14.672194 3.351942 4.024520 3.115024 18.790047 -2.424934 9.383112 26.899654 0.628867 7.617468 1.976087 0.305150 0.155340 0.321830 17.610337 -10.283329 2.574329 -11.248911 -1.258561 16.294697 7.871987 -9.002123 20.574112 -1.037371 -6.159111 2.156528 0.000370 0.046140 0.192500 -1.879989 -5.137942 -7.849074 3.630536 1.647238 33.346257 -3.101794 2.747994 35.684631 3.120120 -4.036434 -19.846580 -16.440269 6.032638 51.608606 5.065290 -1.882980 -17.325550 -6.257161 -38.148180 11.509418 -0.598137 -7.049147 -20.428824 126.440141 5.359370 -23.252741 -4.175470 3.325923 0.633280 -0.163210 0.237050 -0.065370 -0.381390 43.005541 17.467501 14.340726 -1.546534 -27.552590 -134.915548 -9.048301 -30.766133 2.530545 -2.566721 -0.061500 0.238750 0.113980 -0.107280 
0.166490 17.631820 -3.983230 -1.315703 -2.392952 -41.354375 -15.604895 14.655958 3.270040 3.911551 2.673220 16.906226 -1.391387 8.849128 27.189591 0.663173 7.232492 2.086533 0.313520 0.197820 0.327950 17.706356 -10.501895 2.522808 -10.394260 -1.355779 13.513724 7.076321 -8.751830 21.846649 -1.013037 -5.908406 2.250636 -0.037980 -0.062200 0.188550 -2.165236 -4.765404 -7.693901 3.703074 1.031659 37.291842 -2.995366 2.657701 32.852844 2.714160 -3.523058 -17.269118 -13.743014 4.001132 49.430368 4.336790 -1.335280 -19.862210 -5.081095 -33.339380 10.623654 -2.933903 -5.434413 -20.679233 116.579559 -5.876146 -32.927819 -4.000077 3.156333 0.621430 -0.227160 0.296660 -0.063090 -0.897933 37.604766 16.893704 19.747622 -4.411768 -28.678996 -125.652377 5.023999 -48.384261 2.471266 -2.150746 0.012900 0.153280 0.052100 -0.097180 
